<svg xmlns="http://www.w3.org/2000/svg" width="42" height="18" viewBox="0 0 42 18">
    <g fill="#999" fill-rule="evenodd">
        <path d="M11.485 9.288c-.022.464.066.927.255 1.35.34.924.996 1.624 1.968 2.1a9.862 9.862 0 0 1-1.348 2.737c-.803 1.125-1.592 1.7-2.37 1.725-.34 0-.778-.112-1.313-.338-.583-.224-1.081-.337-1.495-.337-.412 0-.936.125-1.567.375-.511.2-.9.3-1.167.3-.535.025-1.106-.275-1.713-.9-.462-.475-.924-1.125-1.386-1.95a13.226 13.226 0 0 1-.839-1.837C.171 11.463 0 10.45 0 9.475 0 8.4.207 7.475.62 6.7c.389-.725.905-1.275 1.55-1.65a4.274 4.274 0 0 1 2.023-.6c.389 0 .984.15 1.786.45.51.2.839.3.984.3.147 0 .45-.088.912-.262.36-.14.724-.266 1.094-.376.462-.124.875-.175 1.24-.15 1.385.126 2.418.688 3.098 1.688-1.239.75-1.847 1.813-1.822 3.187v.001zM9.406 3.1v.038c-.777.924-1.616 1.35-2.516 1.275-.097-1 .207-1.9.912-2.7.292-.35.669-.65 1.13-.9.462-.25.912-.389 1.35-.413.073 1-.22 1.9-.875 2.7zM33.75 4.125v5.562H28v-4.75l5.75-.812zM28 15.063v-4.688h5.75v5.5L28 15.062zm6.375.874v-5.562H42V17l-7.625-1.063zm0-11.874L42 3v6.687h-7.625V4.063z"/>
    </g>
</svg>
